Coordinates
version=1
nRows=9
nColumns=24
inDegrees=yes

Units are S.I. units (second, meters, Newtons, ...)
Angles are in degrees.

endheader
time	pelvis_tilt	pelvis_list	pelvis_rotation	pelvis_tx	pelvis_ty	pelvis_tz	hip_flexion_r	hip_adduction_r	hip_rotation_r	knee_angle_r	ankle_angle_r	subtalar_angle_r	mtp_angle_r	hip_flexion_l	hip_adduction_l	hip_rotation_l	knee_angle_l	ankle_angle_l	subtalar_angle_l	mtp_angle_l	lumbar_extension	lumbar_bending	lumbar_rotation
      2.34000000	     -6.74466479	     -0.11603040	     -8.83173878	      0.05244079	      0.95108747	      0.00223376	     23.34852316	     -1.23855577	     -6.30479672	     -0.68412631	     -1.27599860	      0.00000000	      0.00000000	     -7.41864258	      0.36425688	    -11.93899319	     -6.49225206	      9.54920008	      0.00000000	      0.00000000	      0.69259265	     -2.06559796	     -4.95112652
      2.35000000	     -6.77083771	     -0.13906993	     -8.51830274	      0.05310268	      0.95064942	      0.00412417	     23.25585221	     -1.03577297	     -6.02663699	     -1.16759492	     -1.36564268	      0.00000000	      0.00000000	     -7.67962149	      0.16059374	    -11.78746237	     -6.91489759	      9.35019449	      0.00000000	      0.00000000	      0.78101329	     -2.01221014	     -5.06604270
      2.36000000	     -6.77934333	     -0.18711899	     -8.17796676	      0.05391650	      0.95020853	      0.00604596	     23.11095896	     -0.83362845	     -5.74700820	     -1.70714575	     -1.45585118	      0.00000000	      0.00000000	     -7.91756269	     -0.08318803	    -11.58906044	     -7.44197948	      9.13332031	      0.00000000	      0.00000000	      0.86417006	     -1.92876469	     -5.17012152
      2.37000000	     -6.78895555	     -0.22046038	     -7.82604103	      0.05494562	      0.94977336	      0.00800740	     22.90900834	     -0.66750897	     -5.50222252	     -2.21232288	     -1.60069521	      0.00000000	      0.00000000	     -8.13836285	     -0.32120438	    -11.39143049	     -8.00868047	      8.92961182	      0.00000000	      0.00000000	      0.98090425	     -1.85370253	     -5.25134558
      2.38000000	     -6.78827133	     -0.25923581	     -7.45745298	      0.05609783	      0.94937662	      0.00999235	     22.66028481	     -0.53786720	     -5.25063246	     -2.71647320	     -1.84306282	      0.00000000	      0.00000000	     -8.32497825	     -0.57864483	    -11.16590318	     -8.67396864	      8.68296329	      0.00000000	      0.00000000	      1.09153211	     -1.76862041	     -5.32366947
      2.39000000	     -6.77952754	     -0.30235873	     -7.08596400	      0.05736931	      0.94905758	      0.01196386	     22.35595799	     -0.44079177	     -5.05705577	     -3.16340525	     -2.15869353	      0.00000000	      0.00000000	     -8.46473605	     -0.84965838	    -10.92174773	     -9.45069773	      8.40801801	      0.00000000	      0.00000000	      1.20725597	     -1.66891666	     -5.36407205
      2.40000000	     -6.79252035	     -0.46632870	     -6.55292855	      0.05879793	      0.94883114	      0.01372650	     21.91142242	     -0.31027998	     -5.21698564	     -3.34209498	     -2.72254035	      0.00000000	      0.00000000	     -8.45804868	     -1.29334452	    -10.53649763	    -10.50632118	      8.33965873	      0.00000000	      0.00000000	      1.34529473	     -1.42441771	     -5.55975532
      2.41000000	     -6.77259046	     -0.49867563	     -6.24750505	      0.06021943	      0.94873781	      0.01580415	     21.56588685	     -0.27831436	     -5.03012169	     -3.77443980	     -3.05143262	      0.00000000	      0.00000000	     -8.54112932	     -1.56202753	    -10.34941190	    -11.38078518	      7.89427946	      0.00000000	      0.00000000	      1.46363383	     -1.32850573	     -5.49526655
      2.42000000	     -6.74244500	     -0.55392599	     -5.99330747	      0.06171327	      0.94879489	      0.01780483	     21.19945017	     -0.24997094	     -4.90665739	     -4.19590367	     -3.32110380	      0.00000000	      0.00000000	     -8.58430807	     -1.83405787	    -10.13694672	    -12.35821729	      7.39198545	      0.00000000	      0.00000000	      1.57833586	     -1.17479098	     -5.34088056
